<!-- icon666.com - MILLIONS vector ICONS FREE --><svg version="1.1" id="Capa_1" xmlns="http://www.w3.org/2000/svg" xmlns:xlink="http://www.w3.org/1999/xlink" x="0px" y="0px" viewBox="0 0 147 147" style="enable-background:new 0 0 147 147;" xml:space="preserve"><g><path style="fill:#FF422C;" d="M81,39c0-0.276-0.224-0.5-0.5-0.5h-14c-0.276,0-0.5,0.224-0.5,0.5v6c0,0.276,0.224,0.5,0.5,0.5h14 c0.276,0,0.5-0.224,0.5-0.5V39z"></path><path style="fill:#2AB9F7;" d="M44,70c0-0.276-0.224-0.5-0.5-0.5h-14c-0.276,0-0.5,0.224-0.5,0.5v6c0,0.276,0.224,0.5,0.5,0.5h14 c0.276,0,0.5-0.224,0.5-0.5V70z"></path><path style="fill:#2AB9F7;" d="M118,70c0-0.276-0.224-0.5-0.5-0.5h-14c-0.276,0-0.5,0.224-0.5,0.5v6c0,0.276,0.224,0.5,0.5,0.5h14 c0.276,0,0.5-0.224,0.5-0.5V70z"></path><path style="fill:#A7E62A;" d="M18,102c0-0.276-0.224-0.5-0.5-0.5h-14c-0.276,0-0.5,0.224-0.5,0.5v6c0,0.276,0.224,0.5,0.5,0.5h14 c0.276,0,0.5-0.224,0.5-0.5V102z"></path><path style="fill:#A7E62A;" d="M43,102c0-0.276-0.224-0.5-0.5-0.5h-14c-0.276,0-0.5,0.224-0.5,0.5v6c0,0.276,0.224,0.5,0.5,0.5h14 c0.276,0,0.5-0.224,0.5-0.5V102z"></path><path style="fill:#A7E62A;" d="M67,102c0-0.276-0.224-0.5-0.5-0.5h-14c-0.276,0-0.5,0.224-0.5,0.5v6c0,0.276,0.224,0.5,0.5,0.5h14 c0.276,0,0.5-0.224,0.5-0.5V102z"></path><path style="fill:#A7E62A;" d="M95,102c0-0.276-0.224-0.5-0.5-0.5h-14c-0.276,0-0.5,0.224-0.5,0.5v6c0,0.276,0.224,0.5,0.5,0.5h14 c0.276,0,0.5-0.224,0.5-0.5V102z"></path><path style="fill:#A7E62A;" d="M119,102c0-0.276-0.224-0.5-0.5-0.5h-14c-0.276,0-0.5,0.224-0.5,0.5v6c0,0.276,0.224,0.5,0.5,0.5h14 c0.276,0,0.5-0.224,0.5-0.5V102z"></path><path style="fill:#A7E62A;" d="M144,102c0-0.276-0.224-0.5-0.5-0.5h-14c-0.276,0-0.5,0.224-0.5,0.5v6c0,0.276,0.224,0.5,0.5,0.5h14 c0.276,0,0.5-0.224,0.5-0.5V102z"></path><path d="M143.862,98.5H137v-14h-2h-1h-21v-5h5.338c1.93,0,3.662-1.623,3.662-3.553v-6.18c0-1.93-1.732-3.268-3.662-3.268h-14.441 c-1.93,0-3.896,1.338-3.896,3.268V70.5H76v-22h4.977c1.93,0,3.023-1.389,3.023-3.318v-6.179c0-1.93-1.094-3.503-3.023-3.503H66.535 c-1.93,0-3.535,1.573-3.535,3.503v6.179c0,1.93,1.605,3.318,3.535,3.318H73v22H47v-0.732c0-1.93-1.455-3.268-3.385-3.268H29.174 c-1.93,0-3.174,1.338-3.174,3.268v6.18c0,1.93,1.244,3.553,3.174,3.553H34v5H13h-1h-2v14H3.649C1.72,98.5,0,100.311,0,102.24v6.18 c0,1.93,1.72,3.08,3.649,3.08h14.441c1.93,0,3.909-1.15,3.909-3.08v-6.18c0-1.93-1.979-3.74-3.909-3.74H13v-11h21v11h-5.826 c-1.93,0-3.174,1.811-3.174,3.74v6.18c0,1.93,1.244,3.08,3.174,3.08h14.441c1.93,0,3.385-1.15,3.385-3.08v-6.18 c0-1.93-1.455-3.74-3.385-3.74H37v-11h21v11h-5.301c-1.93,0-3.699,1.811-3.699,3.74v6.18c0,1.93,1.77,3.08,3.699,3.08h14.441 c1.93,0,3.859-1.15,3.859-3.08v-6.18c0-1.93-1.93-3.74-3.859-3.74H61v-14h-2h-1H37v-5h6.615c1.93,0,3.385-1.623,3.385-3.553V73.5 h53v2.447c0,1.93,1.967,3.553,3.896,3.553H110v5H89h-1h-2v14h-5.629c-1.93,0-3.371,1.811-3.371,3.74v6.18 c0,1.93,1.441,3.08,3.371,3.08h14.441c1.93,0,3.188-1.15,3.188-3.08v-6.18c0-1.93-1.258-3.74-3.188-3.74H89v-11h21v11h-5.104 c-1.93,0-3.896,1.811-3.896,3.74v6.18c0,1.93,1.967,3.08,3.896,3.08h14.441c1.93,0,3.662-1.15,3.662-3.08v-6.18 c0-1.93-1.732-3.74-3.662-3.74H113v-11h21v11h-4.579c-1.93,0-3.421,1.811-3.421,3.74v6.18c0,1.93,1.491,3.08,3.421,3.08h14.441 c1.93,0,3.138-1.15,3.138-3.08v-6.18C147,100.311,145.792,98.5,143.862,98.5z M81,45c0,0.276-0.224,0.5-0.5,0.5h-14 c-0.276,0-0.5-0.224-0.5-0.5v-6c0-0.276,0.224-0.5,0.5-0.5h14c0.276,0,0.5,0.224,0.5,0.5V45z M18,108c0,0.276-0.224,0.5-0.5,0.5 h-14c-0.276,0-0.5-0.224-0.5-0.5v-6c0-0.276,0.224-0.5,0.5-0.5h14c0.276,0,0.5,0.224,0.5,0.5V108z M43,108 c0,0.276-0.224,0.5-0.5,0.5h-14c-0.276,0-0.5-0.224-0.5-0.5v-6c0-0.276,0.224-0.5,0.5-0.5h14c0.276,0,0.5,0.224,0.5,0.5V108z M67,108c0,0.276-0.224,0.5-0.5,0.5h-14c-0.276,0-0.5-0.224-0.5-0.5v-6c0-0.276,0.224-0.5,0.5-0.5h14c0.276,0,0.5,0.224,0.5,0.5 V108z M44,76c0,0.276-0.224,0.5-0.5,0.5h-14c-0.276,0-0.5-0.224-0.5-0.5v-6c0-0.276,0.224-0.5,0.5-0.5h14 c0.276,0,0.5,0.224,0.5,0.5V76z M118,76c0,0.276-0.224,0.5-0.5,0.5h-14c-0.276,0-0.5-0.224-0.5-0.5v-6c0-0.276,0.224-0.5,0.5-0.5 h14c0.276,0,0.5,0.224,0.5,0.5V76z M95,108c0,0.276-0.224,0.5-0.5,0.5h-14c-0.276,0-0.5-0.224-0.5-0.5v-6 c0-0.276,0.224-0.5,0.5-0.5h14c0.276,0,0.5,0.224,0.5,0.5V108z M119,108c0,0.276-0.224,0.5-0.5,0.5h-14c-0.276,0-0.5-0.224-0.5-0.5 v-6c0-0.276,0.224-0.5,0.5-0.5h14c0.276,0,0.5,0.224,0.5,0.5V108z M144,108c0,0.276-0.224,0.5-0.5,0.5h-14 c-0.276,0-0.5-0.224-0.5-0.5v-6c0-0.276,0.224-0.5,0.5-0.5h14c0.276,0,0.5,0.224,0.5,0.5V108z"></path></g></svg>